<?xml version="1.0" standalone="no"?>
<!DOCTYPE svg PUBLIC "-//W3C//DTD SVG 20010904//EN"
 "http://www.w3.org/TR/2001/REC-SVG-20010904/DTD/svg10.dtd">
<svg version="1.0" xmlns="http://www.w3.org/2000/svg"
 width="2797.000000pt" height="3595.000000pt" viewBox="0 0 2797.000000 3595.000000"
 preserveAspectRatio="xMidYMid meet">

<g transform="translate(0.000000,3595.000000) scale(0.100000,-0.100000)"
fill="#000000" stroke="none">
<path d="M0 17975 l0 -17975 13985 0 13985 0 0 17975 0 17975 -13985 0 -13985
0 0 -17975z m13387 15655 c316 -15 573 -52 868 -126 826 -208 1604 -692 2161
-1344 552 -648 885 -1412 990 -2275 18 -149 30 -584 20 -696 l-7 -76 -82 28
c-513 177 -963 38 -1251 -384 -95 -141 -191 -394 -203 -540 -5 -62 -8 -68 -25
-63 -44 11 -145 -15 -243 -63 -241 -118 -446 -315 -557 -536 -37 -73 -83 -207
-104 -305 -14 -62 -18 -126 -18 -240 0 -141 2 -162 27 -235 23 -71 55 -132
110 -216 l18 -27 -43 -25 c-128 -76 -301 -335 -378 -565 -40 -120 -70 -275
-78 -406 l-7 -109 -70 -24 c-114 -39 -399 -110 -550 -138 -230 -41 -386 -56
-655 -62 -335 -8 -568 11 -881 69 l-116 21 -7 86 c-22 289 -96 520 -235 733
-77 118 -185 238 -236 263 l-35 16 30 45 c91 132 130 266 130 450 0 244 -63
442 -209 660 -103 155 -283 314 -448 398 -82 41 -197 76 -251 76 -47 0 -49 1
-45 24 3 14 -2 61 -11 105 -91 449 -394 803 -771 902 -112 29 -291 35 -423 15
-203 -31 -422 -124 -637 -270 l-110 -75 -7 27 c-15 59 -38 287 -49 470 -11
212 -1 490 26 710 101 813 428 1566 955 2197 102 123 322 348 450 460 720 633
1632 1001 2585 1045 88 4 162 7 165 8 3 1 96 -3 207 -8z m3663 -4634 c183 -28
361 -99 540 -216 52 -34 99 -66 103 -70 5 -4 -29 -22 -75 -40 -459 -182 -704
-432 -802 -817 -14 -53 -29 -100 -36 -107 -8 -8 -25 -6 -63 8 -84 29 -250 110
-329 161 -151 99 -298 235 -298 277 0 39 47 199 83 285 77 182 235 364 383
440 169 87 301 108 494 79z m-6907 -142 c40 -9 115 -36 167 -61 85 -41 107
-57 200 -152 74 -75 118 -129 149 -185 53 -94 104 -224 127 -324 21 -94 14
-112 -82 -201 -97 -91 -231 -180 -379 -251 -138 -67 -177 -81 -194 -71 -6 4
-25 59 -42 122 -100 381 -354 637 -801 805 -43 16 -78 31 -78 34 1 11 190 130
275 172 180 91 314 126 488 127 56 1 129 -6 170 -15z m8203 -325 c3 -6 23 -18
43 -27 30 -13 87 -15 371 -13 467 3 821 -21 1180 -79 1120 -182 1825 -699
2178 -1595 175 -446 285 -997 317 -1595 8 -143 17 -174 59 -199 18 -11 327
-106 687 -210 843 -243 2634 -763 2899 -840 129 -38 209 -66 217 -77 11 -14
13 -602 13 -3021 0 -1652 -3 -3003 -6 -3003 -3 0 -2070 1001 -4592 2223 -2523
1223 -4609 2233 -4636 2243 -27 11 -54 27 -60 36 -8 13 14 67 106 255 167 341
270 607 349 901 34 129 53 168 102 204 17 14 235 149 482 300 700 428 719 439
738 456 9 8 17 22 17 30 0 17 -114 178 -212 301 -70 86 -93 140 -82 188 3 15
140 314 304 663 164 349 357 761 429 914 72 154 131 288 131 297 0 24 -3 26
-158 69 -155 44 -156 43 -191 -34 -138 -313 -840 -1798 -858 -1816 -22 -24
-29 -25 -163 -28 -434 -10 -742 135 -884 418 -47 93 -48 96 -43 170 3 41 12
127 21 190 26 195 36 383 36 705 0 343 -11 549 -40 792 -24 192 -25 325 -5
412 24 101 87 211 169 294 183 188 444 304 875 392 131 26 165 41 176 75 7 22
20 26 31 9z m-9573 -184 c12 -8 67 -24 122 -35 597 -129 925 -434 926 -860 0
-58 -5 -139 -11 -180 -41 -302 -60 -860 -41 -1195 6 -110 21 -296 32 -413 l22
-212 -22 -58 c-74 -193 -208 -335 -379 -400 -108 -42 -258 -65 -387 -60 -131
4 -138 10 -200 167 -167 420 -700 1728 -708 1739 -15 20 -45 15 -174 -30
l-123 -43 0 -43 c0 -27 10 -63 29 -100 16 -32 97 -226 179 -432 83 -206 235
-579 337 -829 129 -314 188 -470 192 -506 6 -58 -16 -120 -65 -183 -16 -20
-64 -92 -106 -160 -89 -140 -90 -151 -24 -198 24 -17 250 -176 503 -354 253
-177 479 -341 502 -363 57 -54 65 -75 119 -288 76 -305 190 -630 334 -949 40
-90 49 -119 42 -136 -7 -14 -62 -43 -178 -94 -568 -246 -1061 -480 -1954 -927
-735 -367 -1038 -522 -1825 -933 -1637 -854 -2474 -1283 -3095 -1586 -458
-223 -948 -454 -961 -454 -5 0 -9 1236 -9 2774 l0 2774 1043 349 c573 193
1317 441 1652 553 412 136 617 209 632 224 19 19 22 38 32 216 46 794 184
1427 416 1905 341 704 941 1120 1820 1264 296 48 482 61 901 61 l343 0 28 24
c27 23 28 24 31 5 2 -11 13 -26 25 -34z m7099 -405 c24 -7 69 -40 127 -94 50
-45 132 -113 183 -149 109 -79 333 -193 468 -239 116 -39 145 -65 154 -134 28
-223 43 -829 27 -1124 -17 -316 -23 -378 -37 -398 -11 -15 -26 -11 -196 57
-445 178 -772 360 -1125 625 -280 210 -342 318 -330 571 17 347 186 627 488
806 66 40 173 88 194 89 6 0 27 -5 47 -10z m-4711 -164 c345 -150 590 -515
590 -881 1 -246 -69 -362 -341 -566 -215 -161 -429 -293 -682 -420 -155 -78
-486 -222 -560 -244 -44 -13 -49 -13 -57 4 -33 60 -50 1061 -23 1364 18 213
54 262 233 322 216 71 401 186 599 371 106 100 121 103 241 50z m4079 -1493
c284 -220 531 -375 845 -528 190 -93 445 -202 550 -235 123 -39 177 -88 234
-212 51 -113 108 -195 190 -278 97 -97 117 -104 286 -102 120 2 153 -1 235
-22 52 -13 147 -30 210 -36 l115 -13 78 -133 c43 -74 77 -142 75 -151 -3 -15
-651 -532 -743 -593 -16 -11 -46 -20 -66 -20 -91 0 -1028 346 -1589 588 -369
159 -721 323 -768 358 -47 37 -69 87 -83 199 -16 129 -16 417 0 520 40 257
149 498 294 653 28 28 56 52 62 52 7 0 41 -21 75 -47z m-3447 -152 c137 -149
238 -357 282 -584 32 -163 28 -557 -6 -692 -21 -79 -49 -97 -429 -272 -276
-128 -576 -256 -860 -368 -404 -160 -1064 -395 -1108 -395 -12 0 -39 9 -60 20
-62 34 -757 586 -760 604 -2 10 26 69 62 131 36 63 66 120 66 128 0 11 28 15
128 20 130 6 259 26 333 52 26 10 80 15 146 15 124 0 145 8 233 87 87 79 153
170 216 300 38 78 66 122 91 142 22 18 116 61 232 107 487 191 871 400 1205
655 78 59 148 108 157 108 9 1 41 -26 72 -58z m3065 -1550 c489 -245 1254
-559 1962 -804 135 -47 253 -88 263 -92 41 -17 40 -36 -19 -267 -97 -386 -286
-909 -330 -916 -18 -3 -1816 843 -1924 905 -81 47 -181 134 -246 217 -137 171
-180 329 -139 506 23 96 105 256 190 369 75 99 107 131 132 131 8 0 57 -22
111 -49z m-2666 -123 c49 -52 142 -178 180 -243 51 -89 88 -187 105 -282 14
-76 14 -92 0 -164 -28 -143 -97 -259 -228 -385 -35 -33 -89 -77 -119 -97 -46
-30 -638 -314 -1719 -825 -160 -75 -228 -103 -238 -96 -45 28 -250 614 -335
952 -49 201 -52 215 -35 227 9 7 124 50 255 95 719 249 1396 526 1941 794 63
31 125 56 138 56 15 0 37 -13 55 -32z m7595 -4846 l6583 -3087 0 -3202 0
-3203 -12275 0 -12275 0 2 3381 3 3381 5675 2913 c3121 1603 5682 2912 5690
2909 8 -3 2977 -1394 6597 -3092z m-14659 -10777 c260 -54 459 -244 531 -505
59 -211 45 -488 -34 -682 -71 -176 -233 -324 -420 -385 -68 -22 -103 -27 -235
-30 -188 -6 -285 13 -414 79 -95 50 -212 160 -265 250 -82 140 -118 318 -108
533 11 246 68 396 206 547 90 99 203 162 346 193 83 18 307 19 393 0z m8770 0
c260 -54 459 -244 531 -505 59 -211 45 -488 -34 -682 -71 -176 -233 -324 -420
-385 -68 -22 -103 -27 -235 -30 -188 -6 -285 13 -414 79 -95 50 -212 160 -265
250 -82 140 -118 318 -108 533 11 246 68 396 206 547 90 99 203 162 346 193
83 18 307 19 393 0z m5374 -4 c204 -52 349 -187 418 -386 14 -42 16 -57 7 -60
-26 -10 -280 -65 -298 -65 -10 0 -19 7 -19 15 0 30 -51 116 -91 155 -56 54
-130 80 -229 80 -185 0 -303 -99 -357 -300 -13 -50 -17 -103 -17 -230 1 -238
36 -356 133 -443 76 -69 113 -82 231 -82 92 0 111 3 153 25 27 13 64 42 84 63
38 43 89 143 99 195 4 20 12 32 22 32 13 0 291 -79 300 -86 2 -1 -2 -22 -8
-45 -18 -70 -85 -199 -135 -261 -58 -72 -169 -147 -266 -179 -66 -21 -91 -24
-234 -24 -138 0 -170 3 -230 22 -202 64 -369 233 -439 443 -37 113 -49 222
-43 384 10 263 70 420 217 567 96 96 182 147 302 179 103 27 297 27 400 1z
m1876 4 c260 -54 459 -244 531 -505 59 -211 45 -488 -34 -682 -71 -176 -233
-324 -420 -385 -68 -22 -103 -27 -235 -30 -188 -6 -285 13 -414 79 -95 50
-212 160 -265 250 -82 140 -118 318 -108 533 11 246 68 396 206 547 90 99 203
162 346 193 83 18 307 19 393 0z m-18080 -47 c5 -18 67 -253 138 -523 71 -269
130 -483 132 -475 2 8 63 242 136 520 l133 505 241 3 242 2 0 -780 0 -780
-150 0 -150 0 -1 378 c-1 207 -4 467 -8 577 l-6 200 -134 -545 c-74 -300 -138
-560 -143 -578 l-9 -33 -157 3 -157 3 -146 590 -147 590 -1 -592 -1 -593 -150
0 -150 0 0 780 0 780 240 0 239 0 9 -32z m3086 -526 c103 -306 191 -560 195
-565 4 -4 90 247 192 558 l184 565 333 0 332 0 0 -780 0 -780 -165 0 -165 0
-2 759 -3 758 -174 -491 c-96 -270 -217 -611 -269 -758 l-95 -268 -176 0 -176
0 -273 773 c-150 424 -272 775 -272 780 0 4 78 7 173 7 l172 0 189 -558z
m1854 526 c5 -18 67 -253 138 -523 71 -269 130 -483 132 -475 2 8 63 242 136
520 l133 505 241 3 242 2 0 -780 0 -780 -150 0 -150 0 -1 378 c-1 207 -4 467
-8 577 l-6 200 -134 -545 c-74 -300 -138 -560 -143 -578 l-9 -33 -157 3 -157
3 -146 590 -147 590 -1 -592 -1 -593 -150 0 -150 0 0 780 0 780 240 0 239 0 9
-32z m2322 -98 l0 -130 -415 0 -415 0 0 -175 0 -175 390 0 390 0 0 -130 0
-130 -390 0 -390 0 0 -215 0 -215 430 0 430 0 0 -130 0 -130 -595 0 -595 0 0
780 0 780 580 0 580 0 0 -130z m765 -381 l310 -509 3 510 2 510 150 0 150 0 0
-780 0 -780 -164 0 -164 0 -303 494 -304 495 -3 -495 -2 -494 -150 0 -150 0 0
780 0 780 158 0 157 -1 310 -510z m1925 381 l0 -130 -230 0 -230 0 0 -650 0
-650 -165 0 -165 0 0 650 0 650 -230 0 -230 0 0 130 0 130 625 0 625 0 0 -130z
m3185 -381 l310 -509 3 510 2 510 150 0 150 0 0 -780 0 -780 -164 0 -164 0
-303 494 -304 495 -3 -495 -2 -494 -150 0 -150 0 0 780 0 780 158 0 157 -1
310 -510z m1872 -252 c166 -419 305 -770 308 -779 7 -17 -5 -18 -169 -18
l-176 0 -11 28 c-5 15 -35 93 -66 175 l-55 147 -307 0 -306 0 -44 -122 c-24
-68 -52 -147 -63 -175 l-19 -53 -171 0 c-158 0 -170 1 -164 18 3 9 138 360
299 779 l292 763 175 0 175 0 302 -763z m2053 -17 l0 -780 -165 0 -165 0 0
780 0 780 165 0 165 0 0 -780z m2295 269 l310 -509 3 510 2 510 150 0 150 0 0
-780 0 -780 -164 0 -164 0 -303 494 -304 495 -3 -495 -2 -494 -150 0 -150 0 0
780 0 780 158 0 157 -1 310 -510z m1882 -252 c166 -419 305 -770 308 -779 7
-17 -5 -18 -169 -18 l-176 0 -11 28 c-5 15 -35 93 -66 175 l-55 147 -307 0
-306 0 -44 -122 c-24 -68 -52 -147 -63 -175 l-19 -53 -171 0 c-158 0 -170 1
-164 18 3 9 138 360 299 779 l292 763 175 0 175 0 302 -763z m643 103 l0 -640
390 0 390 0 0 -130 0 -130 -550 0 -550 0 0 770 0 770 160 0 160 0 0 -640z
m-5862 -1925 c260 -54 459 -244 531 -505 59 -211 45 -488 -34 -682 -71 -176
-233 -324 -420 -385 -68 -22 -103 -27 -235 -30 -188 -6 -285 13 -414 79 -95
50 -212 160 -265 250 -82 140 -118 318 -108 533 11 246 68 396 206 547 90 99
203 162 346 193 83 18 307 19 393 0z m-15676 -30 c38 -8 96 -28 130 -44 169
-81 293 -266 333 -496 18 -103 20 -335 4 -437 -36 -230 -161 -420 -331 -502
-128 -61 -166 -66 -590 -66 l-378 0 0 780 0 780 383 0 c292 0 398 -4 449 -15z
m1748 -115 l0 -130 -415 0 -415 0 0 -175 0 -175 390 0 390 0 0 -130 0 -130
-390 0 -390 0 0 -215 0 -215 430 0 430 0 0 -130 0 -130 -595 0 -595 0 0 780 0
780 580 0 580 0 0 -130z m2031 -327 c0 -656 6 -707 85 -787 60 -59 97 -71 229
-71 127 0 158 9 213 59 73 66 81 146 82 804 l0 452 161 0 161 0 -5 -567 c-3
-363 -9 -590 -16 -628 -35 -180 -154 -311 -340 -372 -65 -21 -341 -29 -450
-13 -160 24 -300 119 -371 251 -58 109 -62 154 -67 772 l-5 557 161 0 161 0 1
-457z m2239 327 l0 -130 -230 0 -230 0 0 -650 0 -650 -165 0 -165 0 0 650 0
650 -230 0 -230 0 0 130 0 130 625 0 625 0 0 -130z m967 -633 c166 -419 305
-770 308 -779 7 -17 -5 -18 -169 -18 l-176 0 -11 28 c-5 15 -35 93 -66 175
l-55 147 -307 0 -306 0 -44 -122 c-24 -68 -52 -147 -63 -175 l-19 -53 -171 0
c-158 0 -170 1 -164 18 3 9 138 360 299 779 l292 763 175 0 175 0 302 -763z
m1483 752 c167 -26 296 -143 342 -307 22 -80 24 -233 4 -307 -40 -152 -149
-269 -294 -317 -60 -19 -95 -22 -314 -26 l-248 -4 0 -294 0 -294 -165 0 -165
0 0 780 0 780 388 0 c220 0 415 -5 452 -11z m1610 -119 l0 -130 -415 0 -415 0
0 -175 0 -175 390 0 390 0 0 -130 0 -130 -390 0 -390 0 0 -215 0 -215 430 0
430 0 0 -130 0 -130 -595 0 -595 0 0 780 0 780 580 0 580 0 0 -130z m2407
-633 c166 -419 305 -770 308 -779 7 -17 -5 -18 -169 -18 l-176 0 -11 28 c-5
15 -35 93 -66 175 l-55 147 -307 0 -306 0 -44 -122 c-24 -68 -52 -147 -63
-175 l-19 -53 -675 0 -674 0 0 770 0 770 160 0 160 0 0 -640 0 -640 393 0 393
0 249 650 250 650 175 0 175 0 302 -763z m1131 731 c5 -18 67 -253 138 -523
71 -269 130 -483 132 -475 2 8 63 242 136 520 l133 505 241 3 242 2 0 -780 0
-780 -150 0 -150 0 -1 378 c-1 207 -4 467 -8 577 l-6 200 -134 -545 c-74 -300
-138 -560 -143 -578 l-9 -33 -157 3 -157 3 -146 590 -147 590 -1 -592 -1 -593
-150 0 -150 0 0 780 0 780 240 0 239 0 9 -32z m3687 10 c106 -32 169 -76 224
-158 54 -82 74 -164 69 -286 -3 -85 -8 -108 -35 -166 -54 -115 -164 -201 -298
-231 l-55 -12 70 -54 c80 -60 149 -148 270 -340 46 -72 84 -131 85 -131 1 0
123 315 271 700 l269 700 175 0 175 0 302 -763 c166 -419 305 -770 308 -779 7
-17 -5 -18 -169 -18 l-176 0 -11 28 c-5 15 -35 93 -66 175 l-55 147 -307 0
-306 0 -64 -180 -65 -180 -283 0 -282 0 -173 258 c-95 141 -197 282 -228 314
-62 63 -87 73 -217 82 l-83 5 0 -324 0 -325 -165 0 -165 0 0 781 0 780 468 -4
c381 -3 476 -6 517 -19z m2677 7 c38 -8 96 -28 130 -44 169 -81 293 -266 333
-496 18 -103 20 -335 4 -437 -36 -230 -161 -420 -331 -502 -128 -61 -166 -66
-590 -66 l-378 0 0 780 0 780 383 0 c292 0 398 -4 449 -15z m900 -727 l3 -742
285 742 285 742 175 0 175 0 302 -763 c166 -419 305 -770 308 -779 7 -17 -5
-18 -169 -18 l-176 0 -11 28 c-5 15 -35 93 -66 175 l-55 147 -307 0 -306 0
-44 -122 c-24 -68 -52 -147 -63 -175 l-19 -53 -325 0 -324 0 0 780 0 780 165
0 165 0 2 -742z m-18262 82 l0 -640 390 0 390 0 0 -130 0 -130 -550 0 -550 0
0 770 0 770 160 0 160 0 0 -640z m-3221 -3215 c193 -46 339 -194 388 -392 23
-95 23 -306 -1 -393 -53 -196 -192 -336 -381 -385 -76 -19 -241 -19 -324 0
-193 46 -339 198 -385 402 -20 90 -21 264 -1 356 47 222 209 386 415 420 62
10 230 6 289 -8z m1126 0 c151 -40 255 -139 310 -296 12 -34 12 -39 -3 -43
-21 -6 -193 -36 -208 -36 -7 0 -24 25 -39 56 -93 189 -377 170 -466 -31 -45
-101 -49 -309 -10 -435 39 -125 129 -194 251 -194 114 1 204 71 238 186 9 32
22 58 27 58 6 0 57 -15 115 -33 123 -39 121 -36 65 -155 -83 -176 -228 -262
-440 -262 -156 0 -268 44 -370 146 -112 112 -158 245 -157 454 0 210 50 347
166 458 67 64 136 104 219 127 71 19 229 19 302 0z m7726 -1 c86 -20 166 -71
214 -139 36 -51 65 -128 65 -175 0 -25 -4 -28 -46 -34 -26 -3 -80 -6 -120 -6
l-73 0 -12 42 c-16 62 -63 103 -133 118 -66 14 -131 7 -193 -20 -45 -20 -63
-44 -63 -85 0 -66 41 -90 248 -145 223 -58 292 -90 354 -165 50 -59 62 -95 66
-196 4 -82 1 -103 -17 -145 -71 -161 -177 -222 -402 -231 -152 -7 -248 11
-330 60 -95 57 -169 174 -186 292 -7 51 -8 51 129 60 l97 7 7 -29 c14 -57 55
-123 92 -147 50 -33 124 -49 192 -41 75 9 110 25 148 69 25 29 32 46 32 79 0
83 -28 101 -243 158 -197 52 -274 87 -337 155 -57 64 -80 124 -80 214 0 147
98 260 263 305 71 19 242 19 328 -1z m1300 0 c86 -20 166 -71 214 -139 36 -51
65 -128 65 -175 0 -25 -4 -28 -46 -34 -26 -3 -80 -6 -120 -6 l-73 0 -12 42
c-16 62 -63 103 -133 118 -66 14 -131 7 -193 -20 -45 -20 -63 -44 -63 -85 0
-66 41 -90 248 -145 223 -58 292 -90 354 -165 50 -59 62 -95 66 -196 4 -82 1
-103 -17 -145 -71 -161 -177 -222 -402 -231 -152 -7 -248 11 -330 60 -95 57
-169 174 -186 292 -7 51 -8 51 129 60 l97 7 7 -29 c14 -57 55 -123 92 -147 50
-33 124 -49 192 -41 75 9 110 25 148 69 25 29 32 46 32 79 0 83 -28 101 -243
158 -197 52 -274 87 -337 155 -57 64 -80 124 -80 214 0 147 98 260 263 305 71
19 242 19 328 -1z m9228 1 c193 -46 339 -194 388 -392 23 -95 23 -306 -1 -393
-53 -196 -192 -336 -381 -385 -76 -19 -241 -19 -324 0 -193 46 -339 198 -385
402 -20 90 -21 264 -1 356 47 222 209 386 415 420 62 10 230 6 289 -8z
m-17607 -412 l3 -408 25 -50 c30 -60 72 -90 147 -105 103 -22 202 10 244 77
l24 38 3 428 3 427 120 0 120 0 -3 -447 c-3 -444 -4 -448 -27 -507 -44 -110
-149 -193 -272 -216 -69 -13 -241 -13 -314 1 -109 20 -203 82 -252 167 -49 84
-54 134 -60 585 l-5 417 120 0 120 0 4 -407z m1530 374 c72 -35 141 -110 165
-180 27 -77 24 -235 -4 -299 -32 -70 -103 -141 -176 -174 -60 -27 -68 -28
-259 -32 l-198 -4 0 -219 0 -219 -115 0 -115 0 0 581 0 580 323 -3 322 -3 57
-28z m731 21 c27 -67 442 -1091 452 -1116 l14 -32 -132 0 -132 0 -50 130 -50
130 -229 -2 -230 -3 -46 -125 -47 -125 -127 -3 -128 -3 8 23 c5 17 388 994
441 1126 4 9 39 12 128 12 89 0 124 -3 128 -12z m1166 2 c78 -13 125 -36 173
-87 62 -64 83 -123 83 -233 -1 -83 -4 -101 -27 -145 -24 -45 -61 -87 -110
-124 -10 -7 -47 -23 -83 -35 l-65 -22 49 -36 c27 -20 69 -63 94 -96 42 -53
237 -357 237 -368 0 -2 -64 -4 -142 -4 l-143 1 -120 181 c-150 225 -192 271
-264 287 -28 6 -70 11 -91 11 l-40 0 0 -240 0 -240 -120 0 -120 0 0 580 0 580
313 0 c171 0 341 -5 376 -10z m1740 0 c78 -13 125 -36 173 -87 62 -64 83 -123
83 -233 -1 -83 -4 -101 -27 -145 -24 -45 -61 -87 -110 -124 -10 -7 -47 -23
-83 -35 l-65 -22 49 -36 c27 -20 69 -63 94 -96 42 -53 237 -357 237 -368 0 -2
-64 -4 -142 -4 l-143 1 -120 181 c-150 225 -192 271 -264 287 -28 6 -70 11
-91 11 l-40 0 0 -240 0 -240 -120 0 -120 0 0 580 0 580 313 0 c171 0 341 -5
376 -10z m1231 -90 l0 -100 -315 0 -315 0 0 -125 0 -125 295 0 295 0 0 -100 0
-100 -295 0 -295 0 0 -155 0 -155 325 0 325 0 0 -100 0 -100 -440 0 -440 0 0
580 0 580 430 0 430 0 0 -100z m1310 -480 l0 -580 -120 0 -120 0 0 580 0 580
120 0 120 0 0 -580z m1910 480 l0 -100 -170 0 -170 0 0 -480 0 -480 -120 0
-120 0 0 480 0 480 -175 0 -175 0 0 100 0 100 465 0 465 0 0 -100z m270 -480
l0 -580 -120 0 -120 0 0 580 0 580 120 0 120 0 0 -580z m799 570 c78 -13 125
-36 173 -87 62 -64 83 -123 83 -233 -1 -83 -4 -101 -27 -145 -24 -45 -61 -87
-110 -124 -10 -7 -47 -23 -83 -35 l-65 -22 49 -36 c27 -20 69 -63 94 -96 42
-53 237 -357 237 -368 0 -2 -64 -4 -142 -4 l-143 1 -120 181 c-150 225 -192
271 -264 287 -28 6 -70 11 -91 11 l-40 0 0 -240 0 -240 -120 0 -120 0 0 580 0
580 313 0 c171 0 341 -5 376 -10z m1413 -23 c72 -35 141 -110 165 -180 27 -77
24 -235 -4 -299 -32 -70 -103 -141 -176 -174 -60 -27 -68 -28 -259 -32 l-198
-4 0 -219 0 -219 -115 0 -115 0 0 581 0 580 323 -3 322 -3 57 -28z m731 21
c27 -67 442 -1091 452 -1116 l14 -32 -132 0 -132 0 -50 130 -50 130 -229 -2
-230 -3 -46 -125 -47 -125 -127 -3 -128 -3 8 23 c5 17 388 994 441 1126 4 9
39 12 128 12 89 0 124 -3 128 -12z m1166 2 c78 -13 125 -36 173 -87 62 -64 83
-123 83 -233 -1 -83 -4 -101 -27 -145 -24 -45 -61 -87 -110 -124 -10 -7 -46
-23 -82 -35 l-64 -21 56 -45 c55 -44 138 -153 218 -285 l41 -67 102 258 c56
143 149 379 207 527 l106 267 123 0 c89 0 124 -3 128 -12 27 -67 442 -1091
452 -1115 l14 -33 -132 0 -132 0 -50 130 -50 130 -229 -2 -230 -3 -46 -125
-47 -125 -219 -2 -219 -3 -120 181 c-149 226 -192 272 -264 288 -28 6 -70 11
-91 11 l-40 0 0 -240 0 -240 -120 0 -120 0 0 580 0 580 313 0 c171 0 341 -5
376 -10z m2059 -22 c5 -18 51 -192 102 -385 51 -194 95 -352 96 -350 1 1 41
151 89 332 47 182 93 354 101 383 l15 52 179 0 180 0 0 -580 0 -580 -109 0
-108 0 -7 38 c-3 20 -6 217 -6 437 l-1 400 -109 -435 c-60 -239 -109 -436
-110 -438 0 -1 -53 -1 -117 0 l-117 3 -107 430 -107 430 -1 -290 c-1 -159 -4
-354 -8 -432 l-6 -143 -109 0 -108 0 0 580 0 580 180 0 179 0 9 -32z m2721 22
c78 -13 125 -36 173 -87 62 -64 83 -123 83 -233 -1 -83 -4 -101 -27 -145 -24
-45 -61 -87 -110 -124 -10 -7 -46 -23 -82 -35 l-64 -21 56 -45 c55 -44 138
-153 218 -285 l41 -67 102 258 c56 143 149 379 207 527 l106 267 123 0 c89 0
124 -3 128 -12 27 -67 442 -1091 452 -1115 l14 -33 -132 0 -132 0 -50 130 -50
130 -229 -2 -230 -3 -46 -125 -47 -125 -219 -2 -219 -3 -120 181 c-149 226
-192 272 -264 288 -28 6 -70 11 -91 11 l-40 0 0 -240 0 -240 -120 0 -120 0 0
580 0 580 313 0 c171 0 341 -5 376 -10z m2120 0 c78 -13 125 -36 173 -87 62
-64 83 -123 83 -233 -1 -83 -4 -101 -27 -145 -24 -45 -61 -87 -110 -124 -10
-7 -47 -23 -83 -35 l-65 -22 49 -36 c27 -20 69 -63 94 -96 42 -53 237 -357
237 -368 0 -2 -64 -4 -142 -4 l-143 1 -120 181 c-150 225 -192 271 -264 287
-28 6 -70 11 -91 11 l-40 0 0 -240 0 -240 -120 0 -120 0 0 580 0 580 313 0
c171 0 341 -5 376 -10z m641 -121 c0 -110 -38 -586 -56 -696 l-5 -33 -64 0
c-36 0 -65 3 -65 8 0 4 -14 140 -30 302 -16 162 -30 352 -30 423 l0 127 125 0
125 0 0 -131z m-17523 -954 c-9 -196 -31 -249 -136 -316 -49 -32 -66 -35 -74
-16 -3 6 -12 29 -21 49 l-16 38 40 20 c48 24 70 56 77 110 l6 40 -52 0 -51 0
0 110 0 110 117 0 116 0 -6 -145z m17513 35 l0 -110 -115 0 -115 0 0 110 0
110 115 0 115 0 0 -110z"/>
<path d="M13255 21876 c-22 -7 -107 -49 -190 -93 -82 -44 -1905 -1015 -4050
-2158 -3693 -1967 -4585 -2443 -4594 -2451 -2 -2 4005 -4 8905 -4 l8909 0
-245 141 c-135 78 -2002 1077 -4150 2221 -2148 1144 -4013 2137 -4145 2208
-284 152 -337 169 -440 136z m414 -405 c174 -93 1911 -1018 3861 -2056 1950
-1039 3590 -1912 3645 -1941 l100 -54 -7929 0 c-4361 0 -7927 3 -7924 6 14 13
7904 4213 7917 4214 7 0 156 -76 330 -169z"/>
<path d="M2810 13550 l0 -2640 605 0 605 0 0 1877 c0 1032 3 1873 6 1870 4 -4
233 -847 508 -1874 l502 -1868 516 -3 515 -2 15 57 c8 32 226 872 484 1868
l469 1810 3 -1868 2 -1867 755 0 755 0 0 2640 0 2640 -1065 0 -1064 0 -9 -32
c-4 -18 -168 -646 -363 -1395 -195 -749 -357 -1359 -360 -1355 -3 4 -176 631
-384 1395 l-378 1387 -1059 0 -1058 0 0 -2640z"/>
<path d="M9630 13550 l0 -2640 655 0 655 0 0 1370 c0 1596 7 1460 -105 1990
-7 32 -3 25 121 -239 104 -222 240 -484 336 -645 33 -55 391 -635 796 -1288
l736 -1188 658 0 658 0 0 2640 0 2640 -661 0 -661 0 5 -962 c3 -542 10 -1026
16 -1108 21 -276 55 -568 97 -820 3 -22 -19 17 -59 100 -159 335 -240 470
-1042 1734 l-670 1055 -767 1 -768 0 0 -2640z"/>
<path d="M15220 13550 l0 -2640 1850 0 1850 0 0 650 0 650 -1040 0 -1040 0 0
1990 0 1990 -810 0 -810 0 0 -2640z"/>
<path d="M19640 13550 l0 -2640 605 0 605 0 0 1877 c0 1032 3 1873 6 1870 4
-4 233 -847 508 -1874 l502 -1868 516 -3 515 -2 15 57 c8 32 226 872 484 1868
l469 1810 3 -1868 2 -1867 755 0 755 0 0 2640 0 2640 -1065 0 -1064 0 -9 -32
c-4 -18 -168 -646 -363 -1395 -195 -749 -357 -1359 -360 -1355 -3 4 -176 631
-384 1395 l-378 1387 -1059 0 -1058 0 0 -2640z"/>
<path d="M4800 8555 c-67 -21 -149 -83 -192 -144 -91 -130 -120 -362 -72 -570
31 -134 117 -245 232 -299 51 -24 68 -27 172 -27 104 0 121 3 172 27 106 49
182 146 225 283 26 86 26 354 0 440 -41 133 -112 222 -216 272 -49 24 -70 27
-166 30 -75 2 -124 -2 -155 -12z"/>
<path d="M13570 8555 c-67 -21 -149 -83 -192 -144 -91 -130 -120 -362 -72
-570 31 -134 117 -245 232 -299 51 -24 68 -27 172 -27 104 0 121 3 172 27 106
49 182 146 225 283 26 86 26 354 0 440 -41 133 -112 222 -216 272 -49 24 -70
27 -166 30 -75 2 -124 -2 -155 -12z"/>
<path d="M20820 8555 c-67 -21 -149 -83 -192 -144 -91 -130 -120 -362 -72
-570 31 -134 117 -245 232 -299 51 -24 68 -27 172 -27 104 0 121 3 172 27 106
49 182 146 225 283 26 86 26 354 0 440 -41 133 -112 222 -216 272 -49 24 -70
27 -166 30 -75 2 -124 -2 -155 -12z"/>
<path d="M17493 8157 l-101 -282 104 -3 c57 -1 151 -1 208 0 l103 3 -103 279
c-57 153 -105 280 -106 282 -2 1 -49 -124 -105 -279z"/>
<path d="M23723 8157 l-101 -282 104 -3 c57 -1 151 -1 208 0 l103 3 -103 279
c-57 153 -105 280 -106 282 -2 1 -49 -124 -105 -279z"/>
<path d="M18760 5955 c-67 -21 -149 -83 -192 -144 -91 -130 -120 -362 -72
-570 31 -134 117 -245 232 -299 51 -24 68 -27 172 -27 104 0 121 3 172 27 106
49 182 146 225 283 26 86 26 354 0 440 -41 133 -112 222 -216 272 -49 24 -70
27 -166 30 -75 2 -124 -2 -155 -12z"/>
<path d="M2910 5439 l0 -522 191 7 c114 5 209 13 238 22 104 31 159 98 198
244 23 84 25 396 4 480 -19 75 -62 158 -103 197 -62 60 -115 75 -293 84 -88 4
-177 8 -197 8 l-38 1 0 -521z"/>
<path d="M9813 5557 l-101 -282 104 -3 c57 -1 151 -1 208 0 l103 3 -103 279
c-57 153 -105 280 -106 282 -2 1 -49 -124 -105 -279z"/>
<path d="M11370 5735 l0 -227 168 7 c98 4 190 13 222 22 154 43 201 237 85
349 -54 53 -91 61 -307 69 l-168 6 0 -226z"/>
<path d="M15313 5557 l-101 -282 104 -3 c57 -1 151 -1 208 0 l103 3 -103 279
c-57 153 -105 280 -106 282 -2 1 -49 -124 -105 -279z"/>
<path d="M20060 5759 l0 -202 213 7 c256 8 288 12 330 40 101 67 101 248 0
316 -34 23 -48 25 -197 32 -89 3 -203 7 -253 7 l-93 1 0 -201z"/>
<path d="M21653 5557 l-101 -282 104 -3 c57 -1 151 -1 208 0 l103 3 -103 279
c-57 153 -105 280 -106 282 -2 1 -49 -124 -105 -279z"/>
<path d="M22890 5439 l0 -522 191 7 c114 5 209 13 238 22 104 31 159 98 198
244 23 84 25 396 4 480 -19 75 -62 158 -103 197 -62 60 -115 75 -293 84 -88 4
-177 8 -197 8 l-38 1 0 -521z"/>
<path d="M24933 5557 l-101 -282 104 -3 c57 -1 151 -1 208 0 l103 3 -103 279
c-57 153 -105 280 -106 282 -2 1 -49 -124 -105 -279z"/>
<path d="M2570 2146 c-132 -35 -208 -136 -229 -304 -17 -136 8 -271 66 -355
56 -81 185 -136 282 -122 192 28 293 188 278 438 -11 199 -87 308 -234 343
-70 16 -104 17 -163 0z"/>
<path d="M21950 2146 c-132 -35 -208 -136 -229 -304 -17 -136 8 -271 66 -355
56 -81 185 -136 282 -122 192 28 293 188 278 438 -11 199 -87 308 -234 343
-70 16 -104 17 -163 0z"/>
<path d="M5640 1980 l0 -163 138 5 c205 8 261 39 270 151 3 42 -1 59 -20 87
-39 59 -81 72 -244 78 l-144 5 0 -163z"/>
<path d="M6702 2019 c-5 -13 -28 -73 -50 -134 -22 -60 -52 -140 -66 -177 l-25
-68 153 0 154 0 -75 198 c-41 108 -77 199 -79 201 -2 2 -7 -7 -12 -20z"/>
<path d="M7560 2001 l0 -141 128 0 c191 1 258 12 295 48 38 38 48 112 23 160
-30 58 -60 66 -263 70 l-183 4 0 -141z"/>
<path d="M9300 2001 l0 -141 128 0 c191 1 258 12 295 48 38 38 48 112 23 160
-30 58 -60 66 -263 70 l-183 4 0 -141z"/>
<path d="M14820 2001 l0 -141 128 0 c191 1 258 12 295 48 38 38 48 112 23 160
-30 58 -60 66 -263 70 l-183 4 0 -141z"/>
<path d="M16210 1980 l0 -163 138 5 c205 8 261 39 270 151 3 42 -1 59 -20 87
-39 59 -81 72 -244 78 l-144 5 0 -163z"/>
<path d="M17272 2019 c-5 -13 -28 -73 -50 -134 -22 -60 -52 -140 -66 -177
l-25 -68 153 0 154 0 -75 198 c-41 108 -77 199 -79 201 -2 2 -7 -7 -12 -20z"/>
<path d="M18130 2001 l0 -141 128 0 c191 1 258 12 295 48 38 38 48 112 23 160
-30 58 -60 66 -263 70 l-183 4 0 -141z"/>
<path d="M19392 2019 c-5 -13 -28 -73 -50 -134 -22 -60 -52 -140 -66 -177
l-25 -68 153 0 154 0 -75 198 c-41 108 -77 199 -79 201 -2 2 -7 -7 -12 -20z"/>
<path d="M22910 2001 l0 -141 128 0 c191 1 258 12 295 48 38 38 48 112 23 160
-30 58 -60 66 -263 70 l-183 4 0 -141z"/>
<path d="M24172 2019 c-5 -13 -28 -73 -50 -134 -22 -60 -52 -140 -66 -177
l-25 -68 153 0 154 0 -75 198 c-41 108 -77 199 -79 201 -2 2 -7 -7 -12 -20z"/>
<path d="M25030 2001 l0 -141 128 0 c191 1 258 12 295 48 38 38 48 112 23 160
-30 58 -60 66 -263 70 l-183 4 0 -141z"/>
</g>
</svg>
